<svg version="1.1"
	 id="svg3039" xmlns:dc="http://purl.org/dc/elements/1.1/" xmlns:cc="http://creativecommons.org/ns#" xmlns:rdf="http://www.w3.org/1999/02/22-rdf-syntax-ns#" xmlns:svg="http://www.w3.org/2000/svg" xmlns:sodipodi="http://sodipodi.sourceforge.net/DTD/sodipodi-0.dtd" xmlns:inkscape="http://www.inkscape.org/namespaces/inkscape" sodipodi:docname="hourglass.svg" inkscape:version="0.48.4 r9939"
	 xmlns="http://www.w3.org/2000/svg" xmlns:xlink="http://www.w3.org/1999/xlink"  width="23px" height="33px"
	 viewBox="0 0 1200 1200" enable-background="new 0 0 1200 1200" xml:space="preserve">
<!-- <g id="layer1" transform="translate(0,147.63782)" inkscape:label="Layer 1" inkscape:groupmode="layer"> -->
	<path fill="#E4A700" id="path3840" inkscape:connector-curvature="0" d="M109.217-147.638v52.567c-3.023,403.074-55.692,267.372,223.819,547.433
		c-284.6,280.454-223.819,149.32-223.819,547.434v52.566h52.567h876.386h52.566v-52.566c2.99-402.972,55.98-268.045-223.408-547.434
		c284.422-279.638,223.408-149.581,223.408-547.433v-52.567h-52.566H161.784H109.217L109.217-147.638z M214.35-42.505h771.252
		c14.357,296.431-18.396,245.501-230.39,457.495l-36.961,37.372l36.961,37.372c236.757,234.101,230.39,153.272,230.39,457.494
		H214.35c-14.399-296.413,18.597-245.734,230.39-457.905l36.961-36.961l-36.961-36.961
		C208.141,181.065,214.35,261.744,214.35-42.505L214.35-42.505z M321.126,173.513c90.783,77.596,218.086,111.986,244.764,265.708
		h50.924C614.68,300.999,770.24,250.449,878.416,173.513C663.995,196.624,576.542,209.024,321.126,173.513z M597.923,612.526 "/>
<!-- </g> -->
</svg>