<!-- <svg width="14" height="14" viewBox="0 0 14 14" fill="none" xmlns="http://www.w3.org/2000/svg">
<path fill-rule="evenodd" clip-rule="evenodd" d="M6.99967 12.333C9.94519 12.333 12.333 9.94519 12.333 6.99967C12.333 4.05416 9.94519 1.66634 6.99967 1.66634C4.05416 1.66634 1.66634 4.05416 1.66634 6.99967C1.66634 9.94519 4.05416 12.333 6.99967 12.333ZM6.99967 13.6663C10.6816 13.6663 13.6663 10.6816 13.6663 6.99967C13.6663 3.31778 10.6816 0.333008 6.99967 0.333008C3.31778 0.333008 0.333008 3.31778 0.333008 6.99967C0.333008 10.6816 3.31778 13.6663 6.99967 13.6663Z" fill="black">
<path fill-rule="evenodd" clip-rule="evenodd" d="M0.999674 0.333008C1.36786 0.333008 1.66634 0.631485 1.66634 0.999674V3.66634C1.66634 4.03453 1.36786 4.33301 0.999674 4.33301C0.631485 4.33301 0.333008 4.03453 0.333008 3.66634V0.999674C0.333008 0.631485 0.631485 0.333008 0.999674 0.333008Z" fill="black"/>
</path>
</svg> -->

<!-- <svg width="2" height="5" viewBox="0 0 2 5" fill="none" xmlns="http://www.w3.org/2000/svg">
<path fill-rule="evenodd" clip-rule="evenodd" d="M0.999674 0.333008C1.36786 0.333008 1.66634 0.631485 1.66634 0.999674V3.66634C1.66634 4.03453 1.36786 4.33301 0.999674 4.33301C0.631485 4.33301 0.333008 4.03453 0.333008 3.66634V0.999674C0.333008 0.631485 0.631485 0.333008 0.999674 0.333008Z" fill="black"/>
</svg> -->

<svg xmlns="http://www.w3.org/2000/svg"   viewBox="0 0 24 24" fill="none" stroke="currentColor" stroke-width="2" stroke-linecap="round" stroke-linejoin="round" class="feather feather-info"><circle cx="12" cy="12" r="10"></circle><line x1="12" y1="16" x2="12" y2="12"></line><line x1="12" y1="8" x2="12" y2="8"></line></svg>


